# xmcd
# 
# Track frame offsets:
#     150
#     21335
#     41655
#     64095
#     84215
#     105757
#     126592
#     149482
#     170742
#     189555
# 
# Disc length: 2816
# 
# Revision: 0
# Processed by: cddbd v1.5.2PL0 Copyright (c) Steve Scherf et al.
# Submitted via: fre:ac v1.0.27
# 
DISCID=890afe0a
DTITLE=Charlie Sexton - Charlie Sexton
DYEAR=1989
DGENRE=American Band Rock
TTITLE0=Don't Look Back
TTITLE1=Seems So Wrong
TTITLE2=Blowing Up Detroit
TTITLE3=I Can't Cry
TTITLE4=While You Sleep
TTITLE5=For All We Know
TTITLE6=Battle Hymn of the Republic
TTITLE7=Question This
TTITLE8=Save Yourself
TTITLE9=Cry Little Sister
EXTD=YEAR: 1989
EXTT0=
EXTT1=
EXTT2=
EXTT3=
EXTT4=
EXTT5=
EXTT6=
EXTT7=
EXTT8=
EXTT9=
PLAYORDER=
